<svg width="32" height="32" viewBox="0 0 32 32" fill="none" xmlns="http://www.w3.org/2000/svg">
<path d="M26.8133 23.32L20 11.64V5.33332H21.3333C21.6869 5.33332 22.0261 5.19285 22.2761 4.9428C22.5262 4.69275 22.6666 4.35361 22.6666 3.99999C22.6666 3.64637 22.5262 3.30723 22.2761 3.05718C22.0261 2.80713 21.6869 2.66666 21.3333 2.66666H10.6666C10.313 2.66666 9.97388 2.80713 9.72383 3.05718C9.47378 3.30723 9.3333 3.64637 9.3333 3.99999C9.3333 4.35361 9.47378 4.69275 9.72383 4.9428C9.97388 5.19285 10.313 5.33332 10.6666 5.33332H12V11.64L5.18664 23.32C4.83269 23.9276 4.64519 24.6178 4.64302 25.321C4.64086 26.0242 4.82411 26.7155 5.1743 27.3253C5.52449 27.9351 6.02925 28.4418 6.6377 28.7944C7.24615 29.1469 7.93677 29.3328 8.63997 29.3333H23.3066C24.0098 29.3328 24.7005 29.1469 25.3089 28.7944C25.9174 28.4418 26.4221 27.9351 26.7723 27.3253C27.1225 26.7155 27.3057 26.0242 27.3036 25.321C27.3014 24.6178 27.1139 23.9276 26.76 23.32H26.8133ZM14.48 12.6533C14.5976 12.4553 14.6619 12.2302 14.6666 12V5.33332H17.3333V12C17.3357 12.2348 17.4001 12.4647 17.52 12.6667L18.6666 14.6667H13.3333L14.48 12.6533ZM24.5066 25.9867C24.3903 26.1882 24.2232 26.3557 24.0221 26.4727C23.8209 26.5896 23.5927 26.6519 23.36 26.6533H8.6933C8.46062 26.6519 8.23235 26.5896 8.03119 26.4727C7.83003 26.3557 7.66298 26.1882 7.54664 25.9867C7.42961 25.784 7.368 25.554 7.368 25.32C7.368 25.0859 7.42961 24.856 7.54664 24.6533L11.7733 17.3333H20.24L24.5066 24.6667C24.6237 24.8693 24.6853 25.0993 24.6853 25.3333C24.6853 25.5674 24.6237 25.7973 24.5066 26V25.9867ZM13.3333 20C13.0696 20 12.8118 20.0782 12.5925 20.2247C12.3733 20.3712 12.2024 20.5794 12.1015 20.8231C12.0005 21.0667 11.9741 21.3348 12.0256 21.5934C12.077 21.8521 12.204 22.0897 12.3905 22.2761C12.577 22.4626 12.8145 22.5896 13.0732 22.641C13.3318 22.6925 13.5999 22.6661 13.8435 22.5652C14.0872 22.4642 14.2954 22.2933 14.4419 22.0741C14.5884 21.8548 14.6666 21.597 14.6666 21.3333C14.6666 20.9797 14.5262 20.6406 14.2761 20.3905C14.0261 20.1405 13.6869 20 13.3333 20ZM18.6666 21.3333C18.4029 21.3333 18.1451 21.4115 17.9259 21.558C17.7066 21.7045 17.5357 21.9128 17.4348 22.1564C17.3339 22.4 17.3075 22.6681 17.3589 22.9268C17.4104 23.1854 17.5374 23.423 17.7238 23.6095C17.9103 23.7959 18.1479 23.9229 18.4065 23.9744C18.6652 24.0258 18.9332 23.9994 19.1769 23.8985C19.4205 23.7976 19.6288 23.6267 19.7753 23.4074C19.9218 23.1882 20 22.9304 20 22.6667C20 22.313 19.8595 21.9739 19.6094 21.7238C19.3594 21.4738 19.0203 21.3333 18.6666 21.3333Z" fill="#0B2341"/>
</svg>
