<svg width="32" height="32" viewBox="0 0 32 32" fill="none" xmlns="http://www.w3.org/2000/svg">
<path d="M6.19327 28.8083H25.8061C26.9389 28.8083 27.6672 27.6058 27.1424 26.6019L19.4467 10.8026C18.864 9.60608 18.5609 8.29248 18.5609 6.9616V5.24096L19.0886 4.71328C19.6502 4.15168 19.2525 3.19168 18.4582 3.19168H13.6838C12.9501 3.19168 12.5305 4.02944 12.9705 4.61696L13.4377 5.24096V6.9616C13.4377 8.2928 13.1347 9.60608 12.552 10.8026L4.85695 26.6019C4.33215 27.6058 5.06047 28.8083 6.19327 28.8083Z" fill="white"/>
<path d="M25.8057 29.3206H6.19293C5.07773 29.3206 4.17053 28.4137 4.17053 27.2995C4.17053 26.9737 4.24861 26.6595 4.40285 26.3645L12.0918 10.5782C12.6371 9.45791 12.9254 8.20703 12.9254 6.96159V5.41151L12.5603 4.92383C12.376 4.67775 12.2787 4.38815 12.2787 4.08639C12.2787 3.31039 12.9088 2.67935 13.6835 2.67935H18.4582C19.2333 2.67935 19.8637 3.31199 19.8637 4.08927C19.8637 4.45887 19.7171 4.80927 19.4509 5.07551L19.0733 5.45311V6.96159C19.0733 7.91327 19.2358 8.85055 19.5568 9.74655C19.6521 10.0131 19.5136 10.3062 19.2473 10.4016C18.9811 10.4976 18.6873 10.3584 18.5923 10.0922C18.2317 9.08479 18.0486 8.03135 18.0486 6.96159V5.24095C18.0486 5.10495 18.1027 4.97471 18.1987 4.87871L18.7261 4.35103C18.8009 4.27615 18.839 4.18815 18.839 4.08927C18.839 3.92927 18.7213 3.70399 18.4582 3.70399H13.6838C13.4461 3.70399 13.3037 3.89855 13.3037 4.08639C13.3037 4.16607 13.3296 4.24127 13.3811 4.30975L13.8483 4.93375C13.9149 5.02239 13.9504 5.13023 13.9504 5.24095V6.96159C13.9504 8.36191 13.6262 9.76767 13.0131 11.0269L5.31741 26.8262C5.23421 26.9859 5.19549 27.1408 5.19549 27.2992C5.19549 27.7785 5.57693 28.2957 6.19325 28.2957H25.8061C26.4224 28.2957 26.8035 27.7785 26.8035 27.2992C26.8035 27.1402 26.7648 26.9856 26.6883 26.839L19.464 12.007C19.3398 11.7526 19.4457 11.4461 19.7001 11.3219C19.9555 11.1974 20.2617 11.3037 20.3853 11.5581L27.6025 26.3776C27.7501 26.6589 27.8281 26.9734 27.8281 27.2995C27.8278 28.4137 26.9209 29.3206 25.8057 29.3206Z" fill="#0B2341"/>
<path d="M25.8054 28.8083H6.19361C5.06145 28.8083 4.33121 27.607 4.85633 26.6025L10.9994 13.9891H21L27.143 26.6025C27.6678 27.607 26.9376 28.8083 25.8054 28.8083Z" fill="#F8D0B2"/>
<path d="M25.8057 29.3206H6.19327C5.47999 29.3206 4.83359 28.9565 4.46431 28.3462C4.09535 27.737 4.07199 26.9965 4.40191 26.3654L10.5385 13.7648C10.6243 13.5885 10.8032 13.4768 10.999 13.4768H20.9993C21.1952 13.4768 21.3741 13.5885 21.4598 13.7648L27.6029 26.3782C27.9261 26.9965 27.903 27.737 27.5341 28.3462C27.1654 28.9565 26.5187 29.3206 25.8057 29.3206ZM11.3197 14.5014L5.31679 26.8272C5.14783 27.151 5.15903 27.5158 5.34079 27.8157C5.52287 28.1165 5.84159 28.296 6.19327 28.296H25.8057C26.1574 28.296 26.4761 28.1165 26.6582 27.8157C26.84 27.5158 26.8512 27.151 26.6886 26.8403L20.6793 14.5014H11.3197Z" fill="#E86100"/>
<path d="M10.143 25.6122C10.143 26.104 9.74429 26.503 9.25213 26.503C8.76029 26.503 8.36157 26.1043 8.36157 25.6122C8.36157 25.1203 8.76029 24.7213 9.25213 24.7213C9.74429 24.7213 10.143 25.1203 10.143 25.6122Z" fill="white"/>
<path d="M9.25249 27.0154C8.47905 27.0154 7.84961 26.3859 7.84961 25.6122C7.84961 24.8384 8.47905 24.209 9.25249 24.209C10.0262 24.209 10.6557 24.8384 10.6557 25.6122C10.6557 26.3859 10.0259 27.0154 9.25249 27.0154ZM9.25249 25.2336C9.04385 25.2336 8.87425 25.4032 8.87425 25.6122C8.87425 25.8208 9.04385 25.9904 9.25249 25.9904C9.46113 25.9904 9.63105 25.8205 9.63105 25.6122C9.63105 25.4035 9.46081 25.2336 9.25249 25.2336Z" fill="#E86100"/>
<path d="M10.143 19.8227C10.143 20.3146 9.74429 20.7133 9.25213 20.7133C8.76029 20.7133 8.36157 20.3146 8.36157 19.8227C8.36157 19.3309 8.76029 18.9319 9.25213 18.9319C9.74429 18.9322 10.143 19.3309 10.143 19.8227Z" fill="white"/>
<path d="M9.25249 21.2256C8.47905 21.2256 7.84961 20.5962 7.84961 19.8227C7.84961 19.049 8.47905 18.4195 9.25249 18.4195C10.0262 18.4195 10.6557 19.049 10.6557 19.8227C10.6557 20.5965 10.0259 21.2256 9.25249 21.2256ZM9.25249 19.4445C9.04385 19.4445 8.87425 19.6141 8.87425 19.823C8.87425 20.0317 9.04385 20.2013 9.25249 20.2013C9.46113 20.2013 9.63105 20.0314 9.63105 19.823C9.63105 19.6141 9.46081 19.4445 9.25249 19.4445Z" fill="#E86100"/>
<path d="M15.9325 25.6122C15.9325 26.104 15.5338 26.503 15.0419 26.503C14.5501 26.503 14.1511 26.1043 14.1511 25.6122C14.1511 25.1203 14.5498 24.7213 15.0419 24.7213C15.5338 24.7213 15.9325 25.1203 15.9325 25.6122Z" fill="white"/>
<path d="M15.0419 27.0154C14.2682 27.0154 13.6387 26.3859 13.6387 25.6122C13.6387 24.8384 14.2682 24.209 15.0419 24.209C15.8154 24.209 16.4448 24.8384 16.4448 25.6122C16.4448 26.3859 15.8154 27.0154 15.0419 27.0154ZM15.0419 25.2336C14.8333 25.2336 14.6634 25.4032 14.6634 25.6122C14.6634 25.8208 14.8333 25.9904 15.0419 25.9904C15.2506 25.9904 15.4202 25.8205 15.4202 25.6122C15.4202 25.4035 15.2506 25.2336 15.0419 25.2336Z" fill="#E86100"/>
<path d="M15.9325 19.8227C15.9325 20.3146 15.5338 20.7133 15.0419 20.7133C14.5501 20.7133 14.1511 20.3146 14.1511 19.8227C14.1511 19.3309 14.5498 18.9319 15.0419 18.9319C15.5338 18.9322 15.9325 19.3309 15.9325 19.8227Z" fill="white"/>
<path d="M15.0419 21.2256C14.2682 21.2256 13.6387 20.5962 13.6387 19.8227C13.6387 19.049 14.2682 18.4195 15.0419 18.4195C15.8154 18.4195 16.4448 19.049 16.4448 19.8227C16.4448 20.5965 15.8154 21.2256 15.0419 21.2256ZM15.0419 19.4445C14.8333 19.4445 14.6634 19.6141 14.6634 19.823C14.6634 20.0317 14.8333 20.2013 15.0419 20.2013C15.2506 20.2013 15.4202 20.0314 15.4202 19.823C15.4202 19.6141 15.2506 19.4445 15.0419 19.4445Z" fill="#E86100"/>
<path d="M13.2605 22.7174C13.2605 23.2093 12.8618 23.608 12.3699 23.608C11.8781 23.608 11.4791 23.2093 11.4791 22.7174C11.4791 22.2256 11.8778 21.8266 12.3699 21.8266C12.8618 21.8269 13.2605 22.2256 13.2605 22.7174Z" fill="white"/>
<path d="M12.3699 24.1203C11.5962 24.1203 10.9667 23.4912 10.9667 22.7174C10.9667 21.944 11.5962 21.3142 12.3699 21.3142C13.1434 21.3142 13.7728 21.9437 13.7728 22.7174C13.7728 23.4912 13.1434 24.1203 12.3699 24.1203ZM12.3699 22.3392C12.1613 22.3392 11.9917 22.5091 11.9917 22.7178C11.9917 22.9264 12.1616 23.096 12.3699 23.096C12.5786 23.096 12.7482 22.9264 12.7482 22.7178C12.7482 22.5088 12.5786 22.3392 12.3699 22.3392Z" fill="#E86100"/>
<path d="M13.2605 16.928C13.2605 17.4198 12.8618 17.8185 12.3699 17.8185C11.8781 17.8185 11.4791 17.4198 11.4791 16.928C11.4791 16.4361 11.8778 16.0371 12.3699 16.0371C12.8618 16.0374 13.2605 16.4361 13.2605 16.928Z" fill="white"/>
<path d="M12.3699 18.3309C11.5962 18.3309 10.9667 17.7015 10.9667 16.9277C10.9667 16.1543 11.5962 15.5248 12.3699 15.5248C13.1434 15.5248 13.7728 16.1543 13.7728 16.9277C13.7728 17.7018 13.1434 18.3309 12.3699 18.3309ZM12.3699 16.5498C12.1613 16.5498 11.9917 16.7194 11.9917 16.928C11.9917 17.1367 12.1616 17.3063 12.3699 17.3063C12.5786 17.3063 12.7482 17.1367 12.7482 16.928C12.7482 16.7194 12.5786 16.5498 12.3699 16.5498Z" fill="#E86100"/>
<path d="M19.0499 22.7174C19.0499 23.2093 18.6512 23.608 18.1591 23.608C17.6672 23.608 17.2682 23.2093 17.2682 22.7174C17.2682 22.2256 17.6669 21.8266 18.1591 21.8266C18.6512 21.8269 19.0499 22.2256 19.0499 22.7174Z" fill="white"/>
<path d="M18.1594 24.1203C17.3859 24.1203 16.7565 23.4912 16.7565 22.7174C16.7565 21.944 17.3859 21.3142 18.1594 21.3142C18.9331 21.3142 19.5625 21.9437 19.5625 22.7174C19.5622 23.4912 18.9328 24.1203 18.1594 24.1203ZM18.1594 22.3392C17.9507 22.3392 17.7811 22.5091 17.7811 22.7178C17.7811 22.9264 17.9507 23.096 18.1594 23.096C18.368 23.096 18.5376 22.9264 18.5376 22.7178C18.5376 22.5088 18.3677 22.3392 18.1594 22.3392Z" fill="#E86100"/>
<path d="M19.0499 16.928C19.0499 17.4198 18.6512 17.8185 18.1591 17.8185C17.6672 17.8185 17.2682 17.4198 17.2682 16.928C17.2682 16.4361 17.6669 16.0371 18.1591 16.0371C18.6512 16.0374 19.0499 16.4361 19.0499 16.928Z" fill="white"/>
<path d="M18.1594 18.3309C17.3859 18.3309 16.7565 17.7015 16.7565 16.9277C16.7565 16.1543 17.3859 15.5248 18.1594 15.5248C18.9331 15.5248 19.5626 16.1543 19.5626 16.9277C19.5623 17.7018 18.9328 18.3309 18.1594 18.3309ZM18.1594 16.5498C17.9507 16.5498 17.7811 16.7194 17.7811 16.928C17.7811 17.1367 17.9507 17.3063 18.1594 17.3063C18.368 17.3063 18.5376 17.1367 18.5376 16.928C18.5376 16.7194 18.3677 16.5498 18.1594 16.5498ZM14.1511 20.3351H10.1434C9.86049 20.3351 9.63105 20.1056 9.63105 19.8227C9.63105 19.5399 9.86049 19.3104 10.1434 19.3104H14.1511C14.4339 19.3104 14.6634 19.5399 14.6634 19.8227C14.6634 20.1056 14.4339 20.3351 14.1511 20.3351ZM15.0419 25.2336C14.7591 25.2336 14.5296 25.0042 14.5296 24.7213V20.7133C14.5296 20.4304 14.7591 20.201 15.0419 20.201C15.3248 20.201 15.5543 20.4304 15.5543 20.7133V24.7213C15.5543 25.0045 15.3248 25.2336 15.0419 25.2336ZM14.1511 26.1245H10.1434C9.86049 26.1245 9.63105 25.8951 9.63105 25.6122C9.63105 25.3293 9.86049 25.0998 10.1434 25.0998H14.1511C14.4339 25.0998 14.6634 25.3293 14.6634 25.6122C14.6634 25.8951 14.4339 26.1245 14.1511 26.1245ZM9.25249 25.2336C8.96961 25.2336 8.74017 25.0042 8.74017 24.7213V20.7133C8.74017 20.4304 8.96961 20.201 9.25249 20.201C9.53537 20.201 9.76481 20.4304 9.76481 20.7133V24.7213C9.76481 25.0045 9.53537 25.2336 9.25249 25.2336Z" fill="#E86100"/>
<path d="M17.2688 17.4403H13.2605C12.9776 17.4403 12.7482 17.2109 12.7482 16.928C12.7482 16.6451 12.9776 16.4157 13.2605 16.4157H17.2688C17.5517 16.4157 17.7811 16.6451 17.7811 16.928C17.7811 17.2109 17.5514 17.4403 17.2688 17.4403ZM18.1594 22.3392C17.8765 22.3392 17.647 22.1098 17.647 21.8269V17.8186C17.647 17.5357 17.8765 17.3062 18.1594 17.3062C18.4422 17.3062 18.6717 17.5357 18.6717 17.8186V21.8266C18.6717 22.1098 18.4419 22.3392 18.1594 22.3392Z" fill="#E86100"/>
<path d="M12.3699 22.3392C12.087 22.3392 11.8576 22.1098 11.8576 21.8269V17.8186C11.8576 17.5357 12.087 17.3062 12.3699 17.3062C12.6528 17.3062 12.8822 17.5357 12.8822 17.8186V21.8266C12.8822 22.1098 12.6528 22.3392 12.3699 22.3392Z" fill="#E86100"/>
<path d="M17.2688 23.2297H13.2605C12.9776 23.2297 12.7482 23.0003 12.7482 22.7174C12.7482 22.4345 12.9776 22.2051 13.2605 22.2051H17.2688C17.5517 22.2051 17.7811 22.4345 17.7811 22.7174C17.7811 23.0006 17.5514 23.2297 17.2688 23.2297Z" fill="#E86100"/>
<path d="M15.7255 19.7645C15.5907 19.7645 15.4557 19.7114 15.3552 19.6064C15.1594 19.4019 15.1667 19.0774 15.3715 18.8819L17.1603 17.1712C17.3642 16.9757 17.689 16.9827 17.8845 17.1875C18.0803 17.392 18.0727 17.7162 17.8682 17.9117L16.0791 19.6224C15.9805 19.7171 15.8528 19.7645 15.7255 19.7645Z" fill="#E86100"/>
<path d="M9.79806 19.6323C9.65182 19.6323 9.50718 19.5702 9.40606 19.4499C9.22398 19.2333 9.25182 18.9101 9.46846 18.728L11.3737 17.1254C11.5907 16.9434 11.9136 16.9715 12.0957 17.1878C12.2777 17.4045 12.2499 17.7277 12.0333 17.9098L10.128 19.5123C10.0317 19.5926 9.91454 19.6323 9.79806 19.6323Z" fill="#E86100"/>
<path d="M15.7255 25.5536C15.5907 25.5536 15.4557 25.5005 15.3552 25.3955C15.1594 25.191 15.1667 24.8666 15.3715 24.671L17.1603 22.9603C17.3642 22.7651 17.689 22.7718 17.8845 22.9766C18.0803 23.1811 18.0727 23.5056 17.8682 23.7008L16.0791 25.4118C15.9805 25.5066 15.8528 25.5536 15.7255 25.5536Z" fill="#E86100"/>
<path d="M9.79806 25.4218C9.65182 25.4218 9.50718 25.3597 9.40606 25.2394C9.22398 25.0227 9.25182 24.6995 9.46846 24.5175L11.3737 22.9149C11.5907 22.7328 11.9136 22.761 12.0957 22.977C12.2777 23.1936 12.2499 23.5168 12.0333 23.6989L10.128 25.3015C10.0317 25.3821 9.91454 25.4218 9.79806 25.4218Z" fill="#E86100"/>
<path d="M21.8243 25.6122C21.8243 26.104 21.4256 26.503 20.9334 26.503C20.4416 26.503 20.0425 26.1043 20.0425 25.6122C20.0425 25.1203 20.4413 24.7213 20.9334 24.7213C21.4256 24.7213 21.8243 25.1203 21.8243 25.6122Z" fill="white"/>
<path d="M20.9338 27.0154C20.16 27.0154 19.5306 26.3859 19.5306 25.6122C19.5306 24.8384 20.16 24.209 20.9338 24.209C21.7072 24.209 22.3367 24.8384 22.3367 25.6122C22.3367 26.3859 21.7072 27.0154 20.9338 27.0154ZM20.9338 25.2336C20.7251 25.2336 20.5555 25.4032 20.5555 25.6122C20.5555 25.8208 20.7255 25.9904 20.9338 25.9904C21.1424 25.9904 21.312 25.8205 21.312 25.6122C21.312 25.4035 21.1424 25.2336 20.9338 25.2336Z" fill="#E86100"/>
<path d="M21.8243 19.8227C21.8243 20.3146 21.4256 20.7133 20.9334 20.7133C20.4416 20.7133 20.0425 20.3146 20.0425 19.8227C20.0425 19.3309 20.4413 18.9319 20.9334 18.9319C21.4256 18.9322 21.8243 19.3309 21.8243 19.8227Z" fill="white"/>
<path d="M20.9338 21.2256C20.16 21.2256 19.5306 20.5962 19.5306 19.8227C19.5306 19.049 20.16 18.4195 20.9338 18.4195C21.7072 18.4195 22.3367 19.049 22.3367 19.8227C22.3367 20.5965 21.7072 21.2256 20.9338 21.2256ZM20.9338 19.4445C20.7251 19.4445 20.5555 19.6141 20.5555 19.823C20.5555 20.0317 20.7255 20.2013 20.9338 20.2013C21.1424 20.2013 21.312 20.0314 21.312 19.823C21.312 19.6141 21.1424 19.4445 20.9338 19.4445Z" fill="#E86100"/>
<path d="M24.9418 22.7174C24.9418 23.2093 24.5431 23.608 24.0509 23.608C23.5591 23.608 23.1603 23.2093 23.1603 22.7174C23.1603 22.2256 23.5591 21.8266 24.0509 21.8266C24.5431 21.8269 24.9418 22.2256 24.9418 22.7174Z" fill="white"/>
<path d="M24.0509 24.1203C23.2774 24.1203 22.648 23.4912 22.648 22.7174C22.648 21.944 23.2774 21.3142 24.0509 21.3142C24.8246 21.3142 25.4541 21.9437 25.4541 22.7174C25.4541 23.4912 24.8246 24.1203 24.0509 24.1203ZM24.0509 22.3392C23.8422 22.3392 23.6726 22.5091 23.6726 22.7178C23.6726 22.9264 23.8422 23.096 24.0509 23.096C24.2595 23.096 24.4295 22.9264 24.4295 22.7178C24.4295 22.5088 24.2595 22.3392 24.0509 22.3392ZM20.0429 20.335H16.0352C15.7523 20.335 15.5229 20.1056 15.5229 19.8227C15.5229 19.5398 15.7523 19.3104 16.0352 19.3104H20.0432C20.3261 19.3104 20.5555 19.5398 20.5555 19.8227C20.5552 20.1056 20.3258 20.335 20.0429 20.335ZM20.9338 25.2336C20.6509 25.2336 20.4214 25.0042 20.4214 24.7213V20.7133C20.4214 20.4304 20.6509 20.201 20.9338 20.201C21.2166 20.201 21.4461 20.4304 21.4461 20.7133V24.7213C21.4461 25.0045 21.2166 25.2336 20.9338 25.2336ZM20.0429 26.1245H16.0352C15.7523 26.1245 15.5229 25.895 15.5229 25.6122C15.5229 25.3293 15.7523 25.0998 16.0352 25.0998H20.0432C20.3261 25.0998 20.5555 25.3293 20.5555 25.6122C20.5552 25.895 20.3258 26.1245 20.0429 26.1245Z" fill="#E86100"/>
<path d="M22.1357 17.4403H19.1523C18.8695 17.4403 18.64 17.2109 18.64 16.928C18.64 16.6451 18.8695 16.4157 19.1523 16.4157H22.1357C22.4186 16.4157 22.648 16.6451 22.648 16.928C22.648 17.2109 22.4189 17.4403 22.1357 17.4403Z" fill="#E86100"/>
<path d="M23.1603 23.2297H19.1523C18.8695 23.2297 18.64 23.0003 18.64 22.7174C18.64 22.4345 18.8695 22.2051 19.1523 22.2051H23.1603C23.4432 22.2051 23.6727 22.4345 23.6727 22.7174C23.6727 23.0006 23.4435 23.2297 23.1603 23.2297Z" fill="#E86100"/>
<path d="M21.6169 19.7645C21.4822 19.7645 21.3472 19.7114 21.2467 19.6064C21.0509 19.4019 21.0582 19.0774 21.263 18.8819L22.5907 17.6125C22.7949 17.417 23.1193 17.424 23.3149 17.6288C23.5107 17.8333 23.5033 18.1578 23.2985 18.3533L21.9709 19.6227C21.872 19.7171 21.7446 19.7645 21.6169 19.7645Z" fill="#E86100"/>
<path d="M21.6169 25.5536C21.4822 25.5536 21.3472 25.5005 21.2467 25.3955C21.0509 25.191 21.0582 24.8666 21.263 24.671L23.0518 22.9603C23.256 22.7651 23.5805 22.7718 23.776 22.9766C23.9718 23.1811 23.9645 23.5056 23.7597 23.7008L21.9709 25.4118C21.872 25.5066 21.7446 25.5536 21.6169 25.5536Z" fill="#E86100"/>
<path d="M8.36192 26.1245H5.56096C5.27808 26.1245 5.04865 25.8951 5.04865 25.6122C5.04865 25.3293 5.27808 25.0999 5.56096 25.0999H8.36192C8.6448 25.0999 8.87424 25.3293 8.87424 25.6122C8.87424 25.8951 8.6448 26.1245 8.36192 26.1245Z" fill="#E86100"/>
<path d="M11.4791 23.2297H6.96129C6.67841 23.2297 6.44897 23.0003 6.44897 22.7174C6.44897 22.4345 6.67841 22.2051 6.96129 22.2051H11.4794C11.7623 22.2051 11.9917 22.4345 11.9917 22.7174C11.9914 23.0006 11.7619 23.2297 11.4791 23.2297Z" fill="#E86100"/>
<path d="M11.4791 17.4403H9.78722C9.50434 17.4403 9.2749 17.2109 9.2749 16.928C9.2749 16.6451 9.50434 16.4157 9.78722 16.4157H11.4791C11.7619 16.4157 11.9914 16.6451 11.9914 16.928C11.9914 17.2109 11.7619 17.4403 11.4791 17.4403Z" fill="#E86100"/>
<path d="M26.6605 26.1245H21.8243C21.5415 26.1245 21.312 25.8951 21.312 25.6122C21.312 25.3293 21.5415 25.0999 21.8243 25.0999H26.6605C26.9434 25.0999 27.1728 25.3293 27.1728 25.6122C27.1728 25.8951 26.9434 26.1245 26.6605 26.1245Z" fill="#E86100"/>
<path d="M23.7891 20.335H21.8243C21.5415 20.335 21.312 20.1056 21.312 19.8227C21.312 19.5398 21.5415 19.3104 21.8243 19.3104H23.7891C24.072 19.3104 24.3015 19.5398 24.3015 19.8227C24.3015 20.1056 24.072 20.335 23.7891 20.335Z" fill="#E86100"/>
<path d="M16.2877 5.75328H13.4377C13.1549 5.75328 12.9254 5.52384 12.9254 5.24096C12.9254 4.95808 13.1549 4.72864 13.4377 4.72864H16.2877C16.5705 4.72864 16.8 4.95808 16.8 5.24096C16.8 5.52384 16.5705 5.75328 16.2877 5.75328Z" fill="#0B2341"/>
<path d="M25.8057 29.3206H6.19293C5.07773 29.3206 4.17053 28.4137 4.17053 27.2995C4.17053 26.9737 4.24861 26.6595 4.40285 26.3645L12.0918 10.5782C12.6371 9.45791 12.9254 8.20703 12.9254 6.96159V5.41151L12.5603 4.92383C12.376 4.67775 12.2787 4.38815 12.2787 4.08639C12.2787 3.31039 12.9088 2.67935 13.6835 2.67935H18.4582C19.2333 2.67935 19.8637 3.31199 19.8637 4.08927C19.8637 4.45887 19.7171 4.80927 19.4509 5.07551L19.0733 5.45311V6.96159C19.0733 7.91327 19.2358 8.85055 19.5568 9.74655C19.6521 10.0131 19.5136 10.3062 19.2473 10.4016C18.9811 10.4976 18.6873 10.3584 18.5923 10.0922C18.2317 9.08479 18.0486 8.03135 18.0486 6.96159V5.24095C18.0486 5.10495 18.1027 4.97471 18.1987 4.87871L18.7261 4.35103C18.8009 4.27615 18.839 4.18815 18.839 4.08927C18.839 3.92927 18.7213 3.70399 18.4582 3.70399H13.6838C13.4461 3.70399 13.3037 3.89855 13.3037 4.08639C13.3037 4.16607 13.3296 4.24127 13.3811 4.30975L13.8483 4.93375C13.9149 5.02239 13.9504 5.13023 13.9504 5.24095V6.96159C13.9504 8.36191 13.6262 9.76767 13.0131 11.0269L5.31741 26.8262C5.23421 26.9859 5.19549 27.1408 5.19549 27.2992C5.19549 27.7785 5.57693 28.2957 6.19325 28.2957H25.8061C26.4224 28.2957 26.8035 27.7785 26.8035 27.2992C26.8035 27.1402 26.7648 26.9856 26.6883 26.839L19.464 12.007C19.3398 11.7526 19.4457 11.4461 19.7001 11.3219C19.9555 11.1974 20.2617 11.3037 20.3853 11.5581L27.6025 26.3776C27.7501 26.6589 27.8281 26.9734 27.8281 27.2995C27.8278 28.4137 26.9209 29.3206 25.8057 29.3206Z" fill="#0B2341"/>
</svg>
