<svg width="33" height="32" viewBox="0 0 33 32" fill="none" xmlns="http://www.w3.org/2000/svg">
<path d="M16.3333 14.6667C16.3333 13.8755 16.0987 13.1022 15.6592 12.4444C15.2197 11.7866 14.595 11.2739 13.8641 10.9712C13.1332 10.6684 12.3289 10.5892 11.553 10.7435C10.7771 10.8979 10.0643 11.2788 9.50492 11.8382C8.94551 12.3977 8.56455 13.1104 8.4102 13.8863C8.25586 14.6622 8.33508 15.4665 8.63783 16.1974C8.94058 16.9283 9.45327 17.553 10.1111 17.9926C10.7689 18.4321 11.5422 18.6667 12.3333 18.6667C13.3942 18.6667 14.4116 18.2452 15.1618 17.4951C15.9119 16.745 16.3333 15.7275 16.3333 14.6667ZM11 14.6667C11 14.403 11.0782 14.1452 11.2247 13.9259C11.3712 13.7066 11.5795 13.5358 11.8231 13.4348C12.0667 13.3339 12.3348 13.3075 12.5935 13.359C12.8521 13.4104 13.0897 13.5374 13.2762 13.7239C13.4626 13.9103 13.5896 14.1479 13.6411 14.4066C13.6925 14.6652 13.6661 14.9333 13.5652 15.1769C13.4643 15.4206 13.2934 15.6288 13.0741 15.7753C12.8548 15.9218 12.5971 16 12.3333 16C11.9797 16 11.6406 15.8595 11.3905 15.6095C11.1405 15.3594 11 15.0203 11 14.6667Z" fill="#0B2341"/>
<path d="M25.6667 4H7.00002C5.93915 4 4.92173 4.42143 4.17159 5.17157C3.42144 5.92172 3.00002 6.93913 3.00002 8V20C3.00002 20.3536 3.14049 20.6928 3.39054 20.9428C3.64059 21.1929 3.97973 21.3333 4.33335 21.3333C4.68697 21.3333 5.02611 21.1929 5.27616 20.9428C5.52621 20.6928 5.66668 20.3536 5.66668 20V8C5.66668 7.64638 5.80716 7.30724 6.05721 7.05719C6.30725 6.80714 6.64639 6.66667 7.00002 6.66667H25.6667C26.0203 6.66667 26.3594 6.80714 26.6095 7.05719C26.8595 7.30724 27 7.64638 27 8V20C27 20.3536 26.8595 20.6928 26.6095 20.9428C26.3594 21.1929 26.0203 21.3333 25.6667 21.3333C25.3131 21.3333 24.9739 21.4738 24.7239 21.7239C24.4738 21.9739 24.3333 22.313 24.3333 22.6667C24.3333 23.0203 24.4738 23.3594 24.7239 23.6095C24.9739 23.8595 25.3131 24 25.6667 24C26.7275 24 27.745 23.5786 28.4951 22.8284C29.2453 22.0783 29.6667 21.0609 29.6667 20V8C29.6667 6.93913 29.2453 5.92172 28.4951 5.17157C27.745 4.42143 26.7275 4 25.6667 4Z" fill="#0B2341"/>
<path d="M21.8933 16.6L18.3733 21.8667C18.0139 21.2965 17.5161 20.8264 16.9264 20.5001C16.3367 20.1738 15.674 20.0017 15 20H9.66667C8.60581 20 7.58839 20.4214 6.83824 21.1716C6.0881 21.9217 5.66667 22.9391 5.66667 24V26.6667C5.66667 27.0203 5.80715 27.3594 6.0572 27.6095C6.30724 27.8595 6.64638 28 7.00001 28C7.35363 28 7.69277 27.8595 7.94281 27.6095C8.19286 27.3594 8.33334 27.0203 8.33334 26.6667V24C8.33334 23.6464 8.47381 23.3072 8.72386 23.0572C8.97391 22.8071 9.31305 22.6667 9.66667 22.6667H15C15.3536 22.6667 15.6928 22.8071 15.9428 23.0572C16.1929 23.3072 16.3333 23.6464 16.3333 24V25.3333C16.3207 25.6291 16.4069 25.9207 16.5783 26.1622C16.7497 26.4036 16.9966 26.5811 17.28 26.6667C17.5546 26.748 17.8481 26.7388 18.1171 26.6403C18.386 26.5419 18.6162 26.3594 18.7733 26.12L24.1067 18.12C24.223 17.9755 24.308 17.8083 24.3561 17.6292C24.4042 17.45 24.4143 17.2627 24.3859 17.0794C24.3575 16.8961 24.2911 16.7207 24.1911 16.5645C24.091 16.4082 23.9595 16.2746 23.8048 16.1721C23.6502 16.0697 23.4758 16.0006 23.293 15.9693C23.1101 15.9381 22.9227 15.9453 22.7428 15.9906C22.5629 16.0359 22.3944 16.1182 22.2481 16.2323C22.1019 16.3465 21.981 16.4898 21.8933 16.6533V16.6Z" fill="#0B2341"/>
</svg>
