<svg width="33" height="32" viewBox="0 0 33 32" fill="none" xmlns="http://www.w3.org/2000/svg">
<path d="M17.0666 16.2933C17.7781 15.6775 18.3487 14.9159 18.7398 14.06C19.1309 13.2042 19.3333 12.2743 19.3333 11.3333C19.3333 9.56523 18.6309 7.86954 17.3807 6.61929C16.1304 5.36905 14.4347 4.66667 12.6666 4.66667C10.8985 4.66667 9.20282 5.36905 7.95258 6.61929C6.70233 7.86954 5.99995 9.56523 5.99995 11.3333C5.99994 12.2743 6.20236 13.2042 6.59346 14.06C6.98455 14.9159 7.55518 15.6775 8.26662 16.2933C6.40014 17.1385 4.81657 18.5034 3.70526 20.2247C2.59395 21.9461 2.00192 23.9511 1.99995 26C1.99995 26.3536 2.14043 26.6928 2.39048 26.9428C2.64053 27.1929 2.97967 27.3333 3.33329 27.3333C3.68691 27.3333 4.02605 27.1929 4.2761 26.9428C4.52615 26.6928 4.66662 26.3536 4.66662 26C4.66662 23.8783 5.50948 21.8434 7.00977 20.3432C8.51006 18.8429 10.5449 18 12.6666 18C14.7884 18 16.8232 18.8429 18.3235 20.3432C19.8238 21.8434 20.6666 23.8783 20.6666 26C20.6666 26.3536 20.8071 26.6928 21.0571 26.9428C21.3072 27.1929 21.6463 27.3333 22 27.3333C22.3536 27.3333 22.6927 27.1929 22.9428 26.9428C23.1928 26.6928 23.3333 26.3536 23.3333 26C23.3313 23.9511 22.7393 21.9461 21.628 20.2247C20.5167 18.5034 18.9331 17.1385 17.0666 16.2933ZM12.6666 15.3333C11.8755 15.3333 11.1021 15.0987 10.4443 14.6592C9.78654 14.2197 9.27385 13.595 8.9711 12.8641C8.66835 12.1332 8.58914 11.3289 8.74348 10.553C8.89782 9.77705 9.27878 9.06432 9.83819 8.50491C10.3976 7.9455 11.1103 7.56454 11.8863 7.4102C12.6622 7.25586 13.4665 7.33507 14.1974 7.63782C14.9283 7.94057 15.553 8.45326 15.9925 9.11106C16.432 9.76885 16.6666 10.5422 16.6666 11.3333C16.6666 12.3942 16.2452 13.4116 15.495 14.1618C14.7449 14.9119 13.7275 15.3333 12.6666 15.3333ZM25.6533 15.76C26.5066 14.7991 27.064 13.6121 27.2584 12.3418C27.4527 11.0715 27.2759 9.7721 26.749 8.6C26.2221 7.42791 25.3677 6.43307 24.2886 5.73524C23.2095 5.03741 21.9517 4.66633 20.6666 4.66667C20.313 4.66667 19.9739 4.80715 19.7238 5.0572C19.4738 5.30724 19.3333 5.64638 19.3333 6.00001C19.3333 6.35363 19.4738 6.69277 19.7238 6.94281C19.9739 7.19286 20.313 7.33334 20.6666 7.33334C21.7275 7.33334 22.7449 7.75477 23.495 8.50491C24.2452 9.25506 24.6666 10.2725 24.6666 11.3333C24.6647 12.0337 24.479 12.7212 24.128 13.3272C23.7771 13.9333 23.2731 14.4365 22.6666 14.7867C22.4689 14.9007 22.3038 15.0636 22.1871 15.2597C22.0704 15.4558 22.0059 15.6785 22 15.9067C21.9944 16.133 22.0465 16.3571 22.1515 16.5577C22.2565 16.7583 22.4108 16.9289 22.6 17.0533L23.12 17.4L23.2933 17.4933C24.9005 18.2556 26.2564 19.4613 27.2013 20.9684C28.1461 22.4755 28.6407 24.2213 28.6266 26C28.6266 26.3536 28.7671 26.6928 29.0171 26.9428C29.2672 27.1929 29.6063 27.3333 29.96 27.3333C30.3136 27.3333 30.6527 27.1929 30.9028 26.9428C31.1528 26.6928 31.2933 26.3536 31.2933 26C31.3042 23.9539 30.7917 21.939 29.8046 20.1468C28.8174 18.3545 27.3884 16.8444 25.6533 15.76Z" fill="#0B2341"/>
</svg>
